# xmcd
#
# Track frame offsets:
#	183
#	11658
#	21545
#	35645
#	47145
#	56895
#	69258
#	85270
#	102195
#	114333
#	128045
#	143283
#
# Disc length: 2056 seconds
#
# Revision: 0
# Processed by: cddbd v1.4PL0 Copyright (c) Steve Scherf et al.
# Submitted via: MusicWizard 6.0.1
#
DISCID=9d08060c
DTITLE=Willie Nelson and David Allan Coe - Outlaws
DYEAR=1900
DGENRE=
TTITLE0=What A Way To Live
TTITLE1=Misery Mansion
TTITLE2=Rainy Day Blues
TTITLE3=Night Life
TTITLE4=Man With The Blues
TTITLE5=The Storm Has Just Begun
TTITLE6=Got You On My Mind
TTITLE7=These Days
TTITLE8=Mississippi Woman
TTITLE9=Why You Been Gone So Long
TTITLE10=Mary Magdelene
TTITLE11=West Virginia Man
EXTD=ARC - records
EXTT0=
EXTT1=
EXTT2=
EXTT3=
EXTT4=
EXTT5=
EXTT6=
EXTT7=
EXTT8=
EXTT9=
EXTT10=
EXTT11=
PLAYORDER=
